<svg width="50" height="50" viewBox="0 0 50 50" fill="none" xmlns="http://www.w3.org/2000/svg">
<path d="M20.1432 23.125H17.904C17.6922 23.125 17.5308 23.2863 17.5308 23.498V28.7097C17.5308 28.9214 17.6922 29.0827 17.904 29.0827H20.1432C20.3551 29.0827 20.5164 28.9214 20.5164 28.7097V23.498C20.5164 23.2863 20.3551 23.125 20.1432 23.125ZM32.0658 23.125H29.8265C29.6147 23.125 29.4533 23.2863 29.4533 23.498V28.7097C29.4533 28.9214 29.6147 29.0827 29.8265 29.0827H32.0658C32.2776 29.0827 32.439 28.9214 32.439 28.7097V23.498C32.4289 23.2863 32.2675 23.125 32.0658 23.125ZM45.3803 10.5141C45.1483 10.1915 44.9163 9.86895 44.6641 9.55645C43.6756 8.29637 42.5661 7.1371 41.3557 6.08871C40.9018 5.69556 40.4378 5.32258 39.9536 4.95968C39.7922 4.83871 39.6308 4.72782 39.4694 4.60685C36.6855 2.63105 33.488 1.20968 30.0282 0.504032C28.3942 0.171371 26.7097 0 24.9849 0C23.26 0 21.5655 0.171371 19.9415 0.504032C16.4817 1.21976 13.2842 2.64113 10.5306 4.61694C10.3692 4.72782 10.2078 4.84879 10.0464 4.96976C9.56223 5.33266 9.09824 5.70565 8.64434 6.09879C8.34174 6.36089 8.04922 6.63306 7.75671 6.90524C7.46419 7.17742 7.18176 7.45968 6.90942 7.75202C6.35465 8.32661 5.83014 8.94153 5.33589 9.56653C5.09381 9.87903 4.85172 10.2016 4.61973 10.5242C1.70466 14.6169 0 19.6069 0 25C0 25.2016 0.0100867 25.4032 0.0100867 25.6048C0.0201734 25.6754 0.0201735 25.7359 0.0201735 25.8065C0.0302602 25.9375 0.0302602 26.0786 0.0403469 26.2097C0.0403469 26.2903 0.0504337 26.3609 0.0504337 26.4415C0.0504337 26.5726 0.0605205 26.6935 0.0706072 26.8145C0.0806939 26.8952 0.0806939 26.9758 0.0907807 27.0565C0.100867 27.1673 0.110954 27.2883 0.121041 27.4093C0.121041 27.4899 0.131128 27.5706 0.141214 27.6512C0.151301 27.7722 0.171475 27.8931 0.181561 28.0141C0.191648 28.0948 0.201735 28.1653 0.211822 28.246C0.221908 28.377 0.242082 28.5081 0.262255 28.6391C0.272342 28.6996 0.282429 28.7702 0.292516 28.8306L0.383296 29.4052C0.393383 29.4657 0.40347 29.5161 0.413557 29.5766C0.443817 29.7077 0.46399 29.8488 0.494251 29.9798C0.514424 30.0605 0.524511 30.1411 0.544684 30.2218C0.564858 30.3226 0.595118 30.4335 0.615291 30.5444C0.635465 30.6351 0.655638 30.7157 0.675812 30.8065C0.695985 30.9073 0.716159 31.0081 0.746419 31.1089C0.766593 31.1996 0.796853 31.2903 0.817026 31.381C0.847287 31.4819 0.86746 31.5726 0.89772 31.6734C0.927981 31.7641 0.948154 31.8548 0.978414 31.9456C0.998588 32.0363 1.02885 32.1371 1.05911 32.2278C1.08937 32.3186 1.10954 32.4093 1.1398 32.5C1.17006 32.6008 1.20032 32.6915 1.23058 32.7823C1.2911 32.9436 1.34154 33.1149 1.40206 33.2762C1.4424 33.377 1.47266 33.4677 1.50293 33.5585C1.53319 33.6593 1.57353 33.7601 1.61388 33.8609C1.64414 33.9415 1.6744 34.0121 1.70466 34.0927L1.8257 34.3952C1.85596 34.4657 1.88622 34.5464 1.91648 34.6169C1.95683 34.7177 2.00726 34.8185 2.04761 34.9194L2.13839 35.1311C2.18882 35.2319 2.22917 35.3327 2.2796 35.4335C2.30986 35.504 2.34013 35.5645 2.37039 35.6351C2.42082 35.7359 2.47125 35.8468 2.52169 35.9476C2.54186 36.0081 2.57212 36.0585 2.60238 36.1189C2.6629 36.2298 2.71333 36.3407 2.77385 36.4516C2.78394 36.4718 2.79403 36.4819 2.80412 36.502C3.02602 36.9153 3.24793 37.3286 3.49001 37.7319C3.51019 37.7722 3.54045 37.8125 3.56062 37.8528C3.63123 37.9637 3.69175 38.0746 3.76236 38.1855C3.79262 38.2359 3.82288 38.2762 3.85314 38.3266C3.91366 38.4375 3.98426 38.5383 4.05487 38.6492C4.08513 38.6996 4.11539 38.7399 4.14565 38.7903C4.21626 38.9012 4.28687 39.002 4.35747 39.1129C4.37765 39.1532 4.40791 39.1936 4.43817 39.2339C4.50878 39.3448 4.58947 39.4556 4.67016 39.5665C4.69034 39.5867 4.70042 39.6169 4.7206 39.6371C8.50313 44.8488 14.2425 48.5585 20.8594 49.6573C20.9502 49.6673 21.0309 49.6875 21.1216 49.6976C21.2225 49.7177 21.3335 49.7379 21.4343 49.748C21.5352 49.7581 21.626 49.7782 21.7168 49.7883C21.8176 49.8085 21.9185 49.8185 22.0194 49.8286C22.1101 49.8387 22.211 49.8488 22.3119 49.8589C22.4127 49.869 22.5035 49.879 22.6044 49.8891C22.7053 49.8992 22.8162 49.9093 22.9171 49.9194C23.0079 49.9294 23.0986 49.9294 23.1894 49.9395C23.3004 49.9496 23.4214 49.9496 23.5324 49.9597C23.6131 49.9597 23.7039 49.9698 23.7845 49.9698C23.9157 49.9698 24.0468 49.9798 24.1779 49.9798C24.2485 49.9899 24.3191 49.9899 24.3898 49.9899C24.5915 50 24.7932 50 24.995 50C25.1967 50 25.3984 49.9899 25.6002 49.9899C25.6708 49.9899 25.7414 49.9798 25.812 49.9798C25.9431 49.9798 26.0742 49.9798 26.2054 49.9698C26.2861 49.9698 26.3768 49.9597 26.4575 49.9597C26.5685 49.9496 26.6895 49.9496 26.8005 49.9395C26.8913 49.9395 26.982 49.9294 27.0728 49.9194C27.1737 49.9093 27.2846 49.8992 27.3855 49.8891C27.4864 49.879 27.5772 49.869 27.678 49.8589C27.7688 49.8488 27.8697 49.8387 27.9705 49.8286C28.0714 49.8185 28.1723 49.7984 28.2731 49.7883C28.374 49.7782 28.4648 49.7581 28.5556 49.748C28.6564 49.7278 28.7674 49.7177 28.8683 49.6976C28.959 49.6875 29.0397 49.6673 29.1305 49.6573C35.7474 48.5484 41.4868 44.8488 45.2794 39.3347C45.2996 39.3145 45.3097 39.2843 45.3298 39.2641C45.4105 39.1532 45.4811 39.0423 45.5618 38.9315C45.582 38.8911 45.6123 38.8508 45.6425 38.8105C45.7131 38.6996 45.7837 38.5988 45.8543 38.4879C45.8846 38.4375 45.9149 38.3972 45.9451 38.3468C46.0056 38.2359 46.0763 38.1351 46.1469 38.0242C46.1771 37.9738 46.2074 37.9335 46.2376 37.8831C46.3083 37.7722 46.3688 37.6613 46.4394 37.5504C46.4596 37.5101 46.4898 37.4698 46.51 37.4294C46.7521 37.0262 46.974 36.6129 47.1959 36.1996C47.206 36.1794 47.2161 36.1694 47.2261 36.1492C47.2867 36.0383 47.3371 35.9274 47.3976 35.8165C47.4178 35.756 47.4481 35.7056 47.4783 35.6452C47.5287 35.5444 47.5792 35.4335 47.6296 35.3327C47.6599 35.2621 47.6901 35.2016 47.7204 35.1311C47.7708 35.0302 47.8213 34.9294 47.8616 34.8286L47.9524 34.6169C48.0028 34.5161 48.0432 34.4153 48.0835 34.3145C48.1138 34.2439 48.144 34.1633 48.1743 34.0927L48.2953 33.7903C48.3256 33.7097 48.3559 33.6391 48.3861 33.5585C48.4265 33.4577 48.4567 33.3569 48.4971 33.256C48.5374 33.1552 48.5677 33.0645 48.5979 32.9738C48.6585 32.8125 48.719 32.6411 48.7694 32.4798C48.7997 32.379 48.8299 32.2883 48.8602 32.1976C48.8905 32.1069 48.9106 32.0161 48.9409 31.9254C48.9611 31.8347 48.9913 31.7339 49.0216 31.6431C49.0518 31.5524 49.0821 31.4617 49.1023 31.371C49.1325 31.2702 49.1527 31.1794 49.183 31.0786C49.2031 30.9879 49.2334 30.8972 49.2536 30.8065C49.2738 30.7056 49.304 30.6048 49.3242 30.504C49.3444 30.4133 49.3645 30.3327 49.3847 30.2419C49.4049 30.1411 49.4351 30.0302 49.4553 29.9194C49.4755 29.8387 49.4856 29.7581 49.5057 29.6774C49.536 29.5464 49.5663 29.4052 49.5864 29.2742C49.5965 29.2137 49.6066 29.1633 49.6167 29.1028L49.7075 28.5282C49.7176 28.4677 49.7277 28.3972 49.7377 28.3367C49.7478 28.2056 49.768 28.0746 49.7882 27.9436C49.7983 27.8629 49.8084 27.7923 49.8184 27.7117C49.8285 27.5907 49.8487 27.4698 49.8588 27.3488C49.8588 27.2681 49.8689 27.1875 49.879 27.1069C49.889 26.996 49.8991 26.875 49.9092 26.754C49.9193 26.6734 49.9193 26.5927 49.9294 26.5121C49.9395 26.6835 49.9395 26.5625 49.9496 26.4415C49.9496 26.3609 49.9597 26.2903 49.9597 26.2097C49.9697 26.0786 49.9798 25.9375 49.9798 25.8065C49.9899 25.7359 49.9899 25.6754 49.9899 25.6048C50 25.4032 50 25.2016 50 25C50 19.6069 48.2953 14.6169 45.3803 10.5141ZM44.3514 36.6431C43.4033 38.2056 42.2736 39.6573 40.9623 40.9677C38.8844 43.0444 36.4737 44.6673 33.7805 45.8064C32.3785 46.3911 30.936 46.8448 29.4533 47.1371V39.496C29.4533 33.5887 20.5164 33.5887 20.5164 39.496V47.1371C19.0337 46.8448 17.5913 46.4012 16.1892 45.8064C13.4961 44.6673 11.0853 43.0444 9.00746 40.9677C7.69619 39.6573 6.56647 38.2056 5.61832 36.6431V29.4556C5.61832 29.244 5.77971 29.0827 5.99153 29.0827H8.2207C8.43252 29.0827 8.59391 29.244 8.59391 29.4556V32.0565H11.5796V17.5403C11.5796 17.3286 11.741 17.1673 11.9528 17.1673H14.182C14.3938 17.1673 14.5552 17.3286 14.5552 17.5403V20.1512H17.5308V17.5403C17.5308 17.3286 17.6922 17.1673 17.904 17.1673H20.1432C20.3551 17.1673 20.5164 17.3286 20.5164 17.5403V20.1512H23.492V17.5403C23.492 17.0565 24.1477 17.1673 24.4503 17.1673V8.0746C24.0065 7.87298 23.7039 7.39919 23.7039 6.91532C23.7039 5.22177 26.2659 5.22177 26.2659 6.91532C26.2659 7.39919 25.9633 7.8629 25.5195 8.0746V8.46774C26.1549 8.32661 26.8005 8.23589 27.4561 8.23589C28.4043 8.23589 29.3121 8.58871 30.1089 8.58871C30.8352 8.58871 31.6421 8.23589 32.0658 8.23589C32.2776 8.23589 32.439 8.39718 32.439 8.60887V13.4879C32.439 14.0524 30.5528 14.1431 30.1795 14.1431C29.3121 14.1431 28.5051 13.7903 27.6175 13.7903C26.9114 13.7903 26.1953 13.9113 25.5195 14.0726V17.1673C25.8221 17.1673 26.4777 17.0565 26.4777 17.5403V20.1512H29.4533V17.5403C29.4533 17.3286 29.6147 17.1673 29.8265 17.1673H32.0658C32.2776 17.1673 32.439 17.3286 32.439 17.5403V20.1512H35.4146V17.5403C35.4146 17.3286 35.576 17.1673 35.7878 17.1673H38.0169C38.2288 17.1673 38.3902 17.3286 38.3902 17.5403V32.0565H41.3657V29.4556C41.3657 29.244 41.5271 29.0827 41.739 29.0827H43.9782C44.19 29.0827 44.3514 29.244 44.3514 29.4556V36.6431Z" fill="white"/>
</svg>
